<?xml version="1.0" encoding="utf-8"?>
<!-- Generator: Adobe Illustrator 19.0.0, SVG Export Plug-In . SVG Version: 6.00 Build 0)  -->
<svg xmlns="http://www.w3.org/2000/svg" xmlns:xlink="http://www.w3.org/1999/xlink" version="1.1" id="Group_1_copy_1_" x="0px" y="0px" viewBox="0 0 7483.6 1545.9" style="enable-background:new 0 0 7483.6 1545.9;" xml:space="preserve">
<style type="text/css">
	.st0{fill:#FB2F51;}
	.st1{fill-rule:evenodd;clip-rule:evenodd;fill:#FB2F51;}
</style>
<g id="Shape_1">
	<g>
		<path class="st0" d="M919.5,362.5l405.5,705.6l-47.3,83.4H467.3l-50.9-87.7l405.3-701.3H919.5 M942.7,322.5H798.5l-428.4,741.3    l74.2,127.7h856.8l70-123.6L942.7,322.5L942.7,322.5z"/>
	</g>
</g>
<g id="Shape_2_copy">
	<g>
		<path class="st1" d="M831.5,557.2c-18-31.8-37.1-8.2-37.1-8.2l-346,609.5l48.7-6.1l313-551l192,335h45    C1047.1,936.5,945.3,758.7,831.5,557.2z"/>
	</g>
</g>
<g id="Shape_3_copy">
	<g>
		<path class="st1" d="M1177.5,944.4C1169.4,927,827.3,339,827.3,339l-23.2,38.5l321,556h-402l-34,25l11,15h8c0,0,411.3,0.1,441,0    C1178.8,973.3,1185.6,961.7,1177.5,944.4z"/>
	</g>
</g>
<g id="Shape_4_copy">
	<g>
		<path class="st1" d="M693.8,1055.6c-25.4,0-27.9-13.2-16.5-32.9c9.6-16.6,148.2-257.2,192.8-334.5l-27-32.6    c0,0-191.5,330.7-201,349c-9.5,18.3-17.2,45.2-2,66c15.2,20.8,38.5,25,57,25c18.3,0,629,0,629,0l9.2-40    C1335.3,1055.4,719.2,1055.5,693.8,1055.6z"/>
	</g>
</g>
<g>
	<g>
		<path class="st0" d="M2084.5,549.4h86.5l206.4,529l207.5-529h86.5l-252.5,605.5H2337L2084.5,549.4z"/>
		<path class="st0" d="M2820.3,1076.2c-57.7-59.9-86.5-136.2-86.5-229s28.6-167.5,85.9-224s130.1-84.8,218.5-84.8    c56.9,0,106.8,13.3,149.9,39.9s75,61,95.7,103.1v-132h80.7v605.5h-80.7v-133.1c-20.8,42.2-52.7,76.7-95.7,103.7    s-93,40.5-149.9,40.5C2950.6,1166,2878,1136.1,2820.3,1076.2z M3215.2,1031.3c45.7-45.5,68.6-105.2,68.6-179.1    S3261,718.5,3215.2,673s-100.9-68.2-165.5-68.2s-119.5,21.8-164.9,65.4s-68,102.6-68,176.9c0,74.3,22.9,134.9,68.6,181.9    c45.7,47,100.7,70.4,164.9,70.4S3169.5,1076.7,3215.2,1031.3z"/>
		<path class="st0" d="M3583.9,1076.2c-57.7-59.9-86.5-136.2-86.5-229s28.6-167.5,85.9-224s130.1-84.8,218.5-84.8    c56.9,0,106.8,13.3,149.9,39.9s75,61,95.7,103.1v-132h80.7v605.5h-80.7v-133.1c-20.8,42.2-52.7,76.7-95.7,103.7    s-93,40.5-149.9,40.5C3714.2,1166,3641.6,1136.1,3583.9,1076.2z M3978.8,1031.3c45.7-45.5,68.6-105.2,68.6-179.1    s-22.9-133.6-68.6-179.1s-100.9-68.2-165.5-68.2s-119.5,21.8-164.9,65.4s-68,102.6-68,176.9c0,74.3,22.9,134.9,68.6,181.9    c45.7,47,100.7,70.4,164.9,70.4S3933.1,1076.7,3978.8,1031.3z"/>
		<path class="st0" d="M4382.1,334.3v313.8c42.3-73.2,111.8-109.8,208.7-109.8c69.9,0,128.4,22,175.3,66    c46.9,44,70.3,107.4,70.3,190.2v360.4h-79.6v-346c0-66.5-16.7-117.2-50.2-151.9s-79.2-52.1-137.2-52.1s-103.8,17.4-137.2,52.1    s-50.2,85.4-50.2,151.9v346h-80.7V334.3H4382.1z"/>
		<path class="st0" d="M5166.4,540.5v92c40.7-67.3,106.8-100.9,198.3-100.9c73,0,132.6,23.1,178.7,69.3    c46.1,46.2,69.2,110.4,69.2,192.4v361.5h-161.4V815.5c0-48-12.7-84.8-38.1-110.3s-60-38.3-103.8-38.3s-78.6,12.8-104.3,38.3    s-38.6,62.3-38.6,110.3v339.4h-162.6V540.5H5166.4z"/>
		<path class="st0" d="M6220.6,540.5h162.6v614.4h-162.6v-93.2c-40.8,67.3-107.2,100.9-199.5,100.9c-72.3,0-131.5-23.1-177.6-69.3    c-46.1-46.2-69.2-110.3-69.2-192.4V540.5h161.4v338.3c0,48.1,12.7,85,38,110.9s60,38.8,103.8,38.8s78.6-12.9,104.3-38.8    s38.6-62.8,38.6-110.9V540.5z"/>
		<path class="st0" d="M7064.9,540.5l-207.5,300.5l206.4,313.8h-182.2l-122.2-185.2l-117.6,185.2H6478l206.4-299.4l-206.4-315h182.2    l122.2,186.3L6900,540.5H7064.9z"/>
		<path class="st0" d="M7406.4,1024h77.3v130.9H7381c-65.3,0-115.7-14.4-151-43.3c-35.4-28.8-53-76.5-53-143.1V668.1h-68V540.5h68    V388.6h162.6v151.9h143v127.5h-143v300.5c0,20,5,34.2,15,42.7C7364.5,1019.8,7381.8,1024,7406.4,1024z"/>
	</g>
</g>
<path id="XMLID_97_" class="st0" d="M51.1,862c12.5,85.7,25.1,184,37.6,271.8c14.6,104.5,48.1,190.3,100.4,263.5  c77.4,102.5,165.2,152.6,271.8,148.5c12.5,0,25.1,0,39.7,0c10.5,0,18.8,0,27.2,0c4.2,0,10.5,0,14.6,0h474.6h25.1  c79.5,0,167.3,0,261.4-2.1c27.2,0,52.3-4.2,73.2-12.5c140.1-52.3,230-163.1,259.3-319.9c14.6-81.5,20.9-165.2,27.2-244.6v-2.1  c2.1-29.3,4.2-60.6,8.4-89.9c4.2-43.9,8.4-89.9,10.5-133.8v-4.2c2.1-25.1,4.2-52.3,6.3-77.4c6.3-69,12.5-138,16.7-207l8.4-92v-2.1  c0-69-16.7-129.6-50.2-184C1590,52.8,1485.4-5.7,1360,0.5c-83.6,4.2-167.3,14.6-248.8,25.1h-4.2c-33.5,4.2-64.8,8.4-98.3,10.5  C943.9,42.3,881.2,50.7,816.3,57L785,61.2c-146.4,16.7-299,33.5-449.5,48.1C237.2,119.7,145.2,172,80.4,251.4  C17.6,330.9-9.6,427.1,3,523.2C17.6,636.2,34.4,751.2,51.1,862 M1648.5,351.8l-8.4,92c-6.3,69-12.5,138-16.7,204.9  c-2.1,27.2-4.2,54.4-6.3,79.5v6.3c-4.2,41.8-6.3,85.7-10.5,127.5c-2.1,31.4-6.3,62.7-8.4,94.1c-6.3,79.5-12.5,161-27.2,238.4  c-25.1,133.8-98.3,225.8-219.5,271.8c-14.6,6.3-31.4,8.4-52.3,8.4c-89.9,2.1-179.8,2.1-265.5,2.1H1015H540.3h-2.1  c-10.5,0-23,0-37.6,0c-8.4,0-16.7,0-27.2,0c-6.3,0-10.5,0-16.7,0c-2.1,0-6.3,0-8.4,0c-81.5,0-148.5-39.7-209.1-121.3  c-46-62.7-75.3-138-87.8-234.2c-10.5-85.7-23-175.6-35.5-263.5v-2.1C101.3,751.2,82.4,629.9,67.8,517  c-10.5-79.5,12.5-158.9,62.7-223.7c52.3-66.9,129.6-110.8,211.2-119.2c150.5-14.6,303.2-31.4,449.5-48.1l16.7-2.1  c69-8.4,138-14.6,207-23c33.5-4.2,66.9-8.4,102.5-12.5c79.5-10.5,163.1-18.8,244.6-25.1c102.5-6.3,184,41.8,246.7,142.2  C1636,251.4,1650.6,299.5,1648.5,351.8l4.2-2.1l0,0L1648.5,351.8z"/>
</svg>
